# xmcd
#
# Track frame offsets:
#	150
#	15015
#	31352
#	45032
#	63069
#	77106
#	91521
#	104404
#	117018
#	131499
#	145804
#	162072
#	175224
#	189101
#	205261
#	219428
#
# Disc length: 3100 seconds
#
# Revision: 2
# Processed by: cddbd v1.4PL0 Copyright (c) Steve Scherf et al.
# Submitted via: MusicWizard 6.0.2
#
DISCID=b50c1a10
DTITLE=Die Flippers - Melodie D Amour
DYEAR=1900
DGENRE=Country
TTITLE0=Good Bye Eloisa
TTITLE1=Angie
TTITLE2=Sie War Ein Kind Der Sonne
TTITLE3=Septemberwind
TTITLE4=Melodie D Amour
TTITLE5=Stern Von San Fernando
TTITLE6=Tr Nen, Die Der Wind Verweht
TTITLE7=Bella Bianca
TTITLE8=Sommertr Ume
TTITLE9=Weisse Taube, Paloma
TTITLE10=Moonlight Lady
TTITLE11=Der Himmel Hat Dich F R Mich Erdacht
TTITLE12=Fernandos Traum
TTITLE13=Wenn Dein Herz Friert
TTITLE14=Schuld War Die Sommernacht Auf Hawaii
TTITLE15=San Marino Bei Nacht
EXTD=
EXTT0=
EXTT1=
EXTT2=
EXTT3=
EXTT4=
EXTT5=
EXTT6=
EXTT7=
EXTT8=
EXTT9=
EXTT10=
EXTT11=
EXTT12=
EXTT13=
EXTT14=
EXTT15=
PLAYORDER=
